<svg width="21" height="19" viewBox="0 0 21 19" fill="none" xmlns="http://www.w3.org/2000/svg">
<path fill-rule="evenodd" clip-rule="evenodd" d="M8.93364 1.33338H17.9873L18.6673 2.00007V8.00961C18.2508 7.69509 17.7988 7.4306 17.3206 7.22158V5.32018H8.90697L7.76026 6.46689L7.29358 6.66689H1.30671V14.6672H8.12028C8.21361 15.1312 8.35629 15.5765 8.54163 16.0005H0.666689L0 15.3339V0.666689L0.666689 0H7.33358L7.80027 0.200007L8.93364 1.33338ZM8.6403 4.00014H17.3073L17.3206 2.68009H8.65363L8.17361 2.48008L7.04024 1.34671H1.32005V5.34685H7.02691L8.17361 4.20014L8.6403 4.00014Z" fill="#10C623"/>
<path fill-rule="evenodd" clip-rule="evenodd" d="M11.6913 8.89861C12.2736 8.50516 12.9279 8.23067 13.6166 8.09091C14.3053 7.95115 15.0149 7.94888 15.7045 8.08422C16.3941 8.21957 17.0501 8.48987 17.6349 8.87958C18.2198 9.26929 18.7218 9.77073 19.1122 10.3551C19.5026 10.9394 19.7736 11.5952 19.9098 12.2846C20.0459 12.9741 20.0445 13.6836 19.9055 14.3725C19.7665 15.0614 19.4928 15.716 19.1 16.2988C18.7073 16.8815 18.2032 17.3809 17.6168 17.7682C16.4405 18.5452 15.0045 18.8248 13.6227 18.5461C12.2408 18.2674 11.0255 17.4529 10.2424 16.2807C9.45931 15.1085 9.17213 13.674 9.44362 12.2907C9.71512 10.9074 10.5232 9.68784 11.6913 8.89861ZM14.5314 15.5522L17.7141 11.3094L16.6474 10.5093L13.878 14.2015L12.1433 12.8134L11.3099 13.8534L13.582 15.6722L14.5327 15.5522H14.5314Z" fill="#10C623"/>
</svg>
