<svg width="29" height="29" viewBox="0 0 29 29" fill="none" xmlns="http://www.w3.org/2000/svg">
<path d="M6.61486 24.5276L5.88711 25.6656C5.37586 26.5429 4.24359 26.8434 3.35808 26.337C2.47271 25.8305 2.16916 24.7088 2.68041 23.8315L3.14221 23.1576C3.31904 22.9059 3.75539 22.4713 4.62828 22.5531C4.62828 22.5531 6.68239 22.7739 6.83105 23.8315C6.83105 23.8315 6.8512 24.1795 6.61486 24.5276ZM27.1486 17.1232H22.7812C22.4837 17.1034 22.3539 16.9981 22.3027 16.9369L22.2996 16.9313L18.125 10.1639C17.6655 9.46767 16.9358 11.2482 16.9358 11.2482C16.0644 13.2323 17.0595 15.4878 17.4062 16.1697L23.1129 25.6632C23.624 26.5404 24.7562 26.8411 25.6419 26.3345C26.5273 25.8279 26.8308 24.7062 26.3194 23.829L24.6958 21.0428C24.6643 20.9753 24.6095 20.7921 24.9425 20.7912H27.1486C28.1711 20.7912 29 19.97 29 18.9571C29 17.9441 28.1711 17.1232 27.1486 17.1232ZM16.6314 19.6166C16.6314 19.6166 16.8645 20.7913 15.9624 20.7913L1.85137 20.7912C0.828878 20.7912 0 19.97 0 18.9571C0 17.9441 0.828878 17.1231 1.85137 17.1231H6.00217C6.67231 17.0847 6.83105 16.7014 6.83105 16.7014L6.83488 16.7033L12.253 7.40626L12.2514 7.40595C12.3501 7.22634 12.2678 7.05657 12.2536 7.02978L10.4642 3.95936C9.95293 3.08226 10.2563 1.9604 11.1418 1.45408C12.0274 0.947602 13.1596 1.248 13.6708 2.12526L14.5007 3.54926L15.3292 2.1278C15.8404 1.2507 16.9726 0.94998 17.8582 1.45662C18.7437 1.96309 19.0471 3.08463 18.5358 3.96189L10.9962 16.8989C10.9633 16.9777 10.9532 17.1013 11.1985 17.1231L13.6708 17.1232C13.6708 17.1232 16.2766 17.2069 16.6314 19.6166Z" fill="white"/>
</svg>
