<svg width="29" height="28" viewBox="0 0 29 28" fill="none" xmlns="http://www.w3.org/2000/svg">
<path d="M5.86909 25.3927C5.74857 25.5093 5.89281 25.699 6.04263 25.6204C9.86495 23.6165 15.0254 20.9092 19.3868 18.6134C19.4739 18.5675 19.49 18.4534 19.4193 18.386L16.3462 15.4532C16.2884 15.3981 16.1955 15.3984 16.1382 15.454L5.86909 25.3927Z" fill="white"/>
<path d="M16.1289 12.2279C16.1866 12.2832 16.2798 12.2831 16.3373 12.2274L19.4117 9.25054C19.4816 9.18281 19.4644 9.06886 19.3774 9.02333L17.8711 8.23525C16.0598 7.28777 13.6328 6.01831 11.1697 4.73039C9.32505 3.76589 7.46203 2.79202 5.82256 1.93545C5.67244 1.85702 5.52749 2.04676 5.64863 2.16311L16.1289 12.2279Z" fill="white"/>
<path d="M0 1.37817C0 1.04565 0.0518954 0.767265 0.142188 0.537947C0.235508 0.300971 0.543497 0.282807 0.729399 0.46134L14.5592 13.7433C14.6174 13.7991 14.6175 13.8903 14.5595 13.9462L0.679423 27.3592C0.474943 27.5569 0.13696 27.5091 0.0715516 27.2364C0.0240868 27.0386 0 26.8192 0 26.5834V1.37817Z" fill="white"/>
<path d="M21.6916 17.3989C21.6345 17.4289 21.5637 17.4194 21.5175 17.3751L17.9171 13.9401C17.8585 13.8843 17.8584 13.7928 17.9166 13.7365L21.5364 10.2485C21.5828 10.2038 21.6542 10.1943 21.7117 10.2246C24.7928 11.8533 27.1962 13.118 27.929 13.4936C27.9563 13.5078 27.9777 13.529 27.99 13.5566C28.0569 13.706 28.0722 13.8546 28.0495 13.9976C28.043 14.039 28.0152 14.0729 27.9771 14.0924C27.5556 14.3077 26.1444 15.0517 24.1789 16.088L24.1668 16.0944C23.4145 16.4909 22.5812 16.9302 21.6916 17.3989Z" fill="white"/>
</svg>
